<svg width="53" height="45" viewBox="0 0 53 45" fill="none" xmlns="http://www.w3.org/2000/svg">
<path d="M50.5625 30.4062H41.8721C41.9353 29.7525 41.9676 29.0953 41.9688 28.4375C41.9688 23.7382 40.339 19.2314 37.4381 15.9084C34.5371 12.5855 30.6026 10.7187 26.5 10.7187C22.3974 10.7187 18.4629 12.5855 15.5619 15.9084C12.661 19.2314 11.0312 23.7382 11.0312 28.4375C11.0324 29.0953 11.0647 29.7525 11.1279 30.4062H2.4375C1.98166 30.4062 1.54449 30.6137 1.22216 30.9829C0.899832 31.3521 0.71875 31.8528 0.71875 32.375C0.71875 32.8971 0.899832 33.3979 1.22216 33.7671C1.54449 34.1363 1.98166 34.3437 2.4375 34.3437H50.5625C51.0183 34.3437 51.4555 34.1363 51.7778 33.7671C52.1002 33.3979 52.2812 32.8971 52.2812 32.375C52.2812 31.8528 52.1002 31.3521 51.7778 30.9829C51.4555 30.6137 51.0183 30.4062 50.5625 30.4062ZM14.4688 28.4375C14.4656 26.5423 14.8037 24.6668 15.462 22.9281C16.1203 21.1894 17.0845 19.6249 18.2945 18.3324C19.5045 17.0399 20.9343 16.0471 22.4944 15.4162C24.0545 14.7852 25.7114 14.5296 27.3617 14.6653C29.0119 14.8011 30.62 15.3252 32.0854 16.2051C33.5508 17.0849 34.842 18.3014 35.8784 19.7787C36.9148 21.256 37.674 22.9623 38.1087 24.7908C38.5433 26.6194 38.644 28.5311 38.4045 30.4062H14.5955C14.5122 29.7543 14.4699 29.0964 14.4688 28.4375ZM45.4062 42.2187C45.4062 42.7409 45.2252 43.2416 44.9028 43.6109C44.5805 43.9801 44.1433 44.1875 43.6875 44.1875H9.3125C8.85666 44.1875 8.41949 43.9801 8.09716 43.6109C7.77483 43.2416 7.59375 42.7409 7.59375 42.2187C7.59375 41.6966 7.77483 41.1958 8.09716 40.8266C8.41949 40.4574 8.85666 40.25 9.3125 40.25H43.6875C44.1433 40.25 44.5805 40.4574 44.9028 40.8266C45.2252 41.1958 45.4062 41.6966 45.4062 42.2187ZM14.6492 3.72476C14.4452 3.25744 14.4117 2.71644 14.5559 2.22077C14.7001 1.72511 15.0104 1.31537 15.4184 1.08171C15.8263 0.848055 16.2986 0.809607 16.7314 0.97483C17.1641 1.14005 17.5218 1.49541 17.7258 1.96273L19.4445 5.90023C19.5455 6.13162 19.6058 6.38354 19.6218 6.64159C19.6378 6.89965 19.6093 7.15879 19.5378 7.40422C19.4664 7.64965 19.3535 7.87656 19.2055 8.072C19.0575 8.26744 18.8774 8.42758 18.6754 8.54328C18.4734 8.65897 18.2535 8.72796 18.0282 8.7463C17.8029 8.76464 17.5767 8.73197 17.3624 8.65016C17.1481 8.56835 16.95 8.439 16.7794 8.2695C16.6088 8.09999 16.469 7.89366 16.368 7.66226L14.6492 3.72476ZM2.61797 15.744C2.71905 15.5127 2.85894 15.3065 3.02962 15.1371C3.20031 14.9678 3.39846 14.8386 3.61275 14.757C3.82703 14.6754 4.05326 14.643 4.27849 14.6616C4.50372 14.6802 4.72354 14.7495 4.92539 14.8654L8.36289 16.8342C8.77058 17.0678 9.08054 17.4774 9.22458 17.9729C9.36862 18.4683 9.33495 19.009 9.13096 19.476C8.92697 19.943 8.56938 20.298 8.13686 20.463C7.70433 20.628 7.2323 20.5894 6.82461 20.3558L3.38711 18.387C3.185 18.2715 3.00476 18.1114 2.8567 17.916C2.70864 17.7205 2.59566 17.4936 2.52422 17.2481C2.45279 17.0027 2.4243 16.7435 2.44039 16.4854C2.45647 16.2273 2.51682 15.9753 2.61797 15.744ZM43.868 19.4748C43.6644 19.0077 43.631 18.4672 43.7752 17.9721C43.9195 17.4769 44.2295 17.0676 44.6371 16.8342L48.0746 14.8654C48.4823 14.6318 48.9543 14.5932 49.3869 14.7582C49.8194 14.9232 50.177 15.2782 50.381 15.7452C50.5849 16.2122 50.6186 16.7529 50.4746 17.2483C50.3305 17.7438 50.0206 18.1534 49.6129 18.387L46.1754 20.3558C45.9734 20.4716 45.7535 20.5408 45.5281 20.5592C45.3028 20.5776 45.0765 20.545 44.8622 20.4632C44.6479 20.3813 44.4498 20.2519 44.2792 20.0823C44.1086 19.9127 43.9689 19.7063 43.868 19.4748ZM33.5555 5.90023L35.2742 1.96273C35.4782 1.49541 35.8359 1.14005 36.2686 0.97483C36.7014 0.809607 37.1737 0.848055 37.5816 1.08171C37.9896 1.31537 38.2999 1.72511 38.4441 2.22077C38.5883 2.71644 38.5548 3.25744 38.3508 3.72476L36.632 7.66226C36.428 8.12958 36.0703 8.48494 35.6376 8.65016C35.2049 8.81538 34.7326 8.77694 34.3246 8.54328C33.9166 8.30962 33.6064 7.89989 33.4622 7.40422C33.3179 6.90855 33.3515 6.36755 33.5555 5.90023Z" fill="white"/>
</svg>
