<svg width="36" height="36" viewBox="0 0 127 134" fill="none" xmlns="http://www.w3.org/2000/svg">
<rect width="127" height="128" rx="12" fill="white"/>
<rect x="0.5" y="0.5" width="126" height="127" rx="11.5" stroke="black" stroke-opacity="0.4"/>
<path d="M88.335 78.9333H84.5825L83.2525 77.6733C88.0684 72.1854 90.7152 65.1792 90.71 57.9333C90.71 51.934 88.8992 46.0693 85.5066 41.081C82.114 36.0927 77.292 32.2048 71.6503 29.909C66.0087 27.6131 59.8007 27.0124 53.8116 28.1828C47.8224 29.3533 42.321 32.2422 38.0031 36.4844C33.6851 40.7266 30.7445 46.1315 29.5532 52.0156C28.3619 57.8997 28.9733 63.9987 31.3102 69.5414C33.647 75.0841 37.6044 79.8215 42.6817 83.1546C47.7591 86.4876 53.7285 88.2667 59.835 88.2667C67.4825 88.2667 74.5125 85.5133 79.9275 80.94L81.21 82.2467V85.9333L104.96 109.22L112.037 102.267L88.335 78.9333ZM59.835 78.9333C48.0075 78.9333 38.46 69.5533 38.46 57.9333C38.46 46.3133 48.0075 36.9333 59.835 36.9333C71.6625 36.9333 81.21 46.3133 81.21 57.9333C81.21 69.5533 71.6625 78.9333 59.835 78.9333Z" fill="#1D65A6"/>
</svg>
