<svg xmlns="http://www.w3.org/2000/svg" xmlns:xlink="http://www.w3.org/1999/xlink" width="1920" height="2535" viewBox="0 0 1920 2535">
  <defs>
    <clipPath id="clip-path">
      <rect id="Rectangle_23" data-name="Rectangle 23" width="1920" height="2535" transform="translate(4914)" fill="#fff"/>
    </clipPath>
  </defs>
  <g id="Mask_Group_2" data-name="Mask Group 2" transform="translate(-4914)" clip-path="url(#clip-path)">
    <path id="Path_982" data-name="Path 982" d="M219.873,66.738l-84-47.478a16.087,16.087,0,0,0-15.746,0l-84,47.479A16.025,16.025,0,0,0,28,80.668v94.664a16.027,16.027,0,0,0,8.127,13.93l84,47.478a16.088,16.088,0,0,0,15.746,0l84-47.479A16.026,16.026,0,0,0,228,175.332V80.668A16.027,16.027,0,0,0,219.873,66.738Z" transform="translate(4782 125.747)" fill="#1d65a6" opacity="0.08"/>
    <path id="Path_1027" data-name="Path 1027" d="M32.9,47.056,83.522,18.442a9.7,9.7,0,0,1,9.49,0l50.624,28.614a9.658,9.658,0,0,1,4.9,8.395V112.5a9.659,9.659,0,0,1-4.9,8.395L93.012,149.51a9.7,9.7,0,0,1-9.49,0L32.9,120.9A9.658,9.658,0,0,1,28,112.5V55.451A9.659,9.659,0,0,1,32.9,47.056Z" transform="translate(6489.466 2270.771)" fill="#1d65a6" opacity="0.08"/>
    <path id="Path_1028" data-name="Path 1028" d="M219.873,66.738l-84-47.478a16.087,16.087,0,0,0-15.746,0l-84,47.479A16.025,16.025,0,0,0,28,80.668v94.664a16.027,16.027,0,0,0,8.127,13.93l84,47.478a16.088,16.088,0,0,0,15.746,0l84-47.479A16.026,16.026,0,0,0,228,175.332V80.668A16.027,16.027,0,0,0,219.873,66.738Z" transform="translate(6706 125.747)" fill="#1d65a6" opacity="0.08"/>
    <path id="Path_1029" data-name="Path 1029" d="M219.873,66.738l-84-47.478a16.087,16.087,0,0,0-15.746,0l-84,47.479A16.025,16.025,0,0,0,28,80.668v94.664a16.027,16.027,0,0,0,8.127,13.93l84,47.478a16.088,16.088,0,0,0,15.746,0l84-47.479A16.026,16.026,0,0,0,228,175.332V80.668A16.027,16.027,0,0,0,219.873,66.738Z" transform="translate(6716.135 494.151)" fill="#1d65a6" opacity="0.08"/>
    <path id="Path_1030" data-name="Path 1030" d="M219.873,66.738l-84-47.478a16.087,16.087,0,0,0-15.746,0l-84,47.479A16.025,16.025,0,0,0,28,80.668v94.664a16.027,16.027,0,0,0,8.127,13.93l84,47.478a16.088,16.088,0,0,0,15.746,0l84-47.479A16.026,16.026,0,0,0,228,175.332V80.668A16.027,16.027,0,0,0,219.873,66.738Z" transform="translate(4786 494.151)" fill="#1d65a6" opacity="0.08"/>
    <path id="Path_1031" data-name="Path 1031" d="M32.9,47.056,83.522,18.442a9.7,9.7,0,0,1,9.49,0l50.624,28.614a9.658,9.658,0,0,1,4.9,8.395V112.5a9.659,9.659,0,0,1-4.9,8.395L93.012,149.51a9.7,9.7,0,0,1-9.49,0L32.9,120.9A9.658,9.658,0,0,1,28,112.5V55.451A9.659,9.659,0,0,1,32.9,47.056Z" transform="translate(4997.977 1882.48) rotate(90)" fill="#1d65a6" opacity="0.08"/>
    <path id="Path_1032" data-name="Path 1032" d="M32.9,47.056,83.522,18.442a9.7,9.7,0,0,1,9.49,0l50.624,28.614a9.658,9.658,0,0,1,4.9,8.395V112.5a9.659,9.659,0,0,1-4.9,8.395L93.012,149.51a9.7,9.7,0,0,1-9.49,0L32.9,120.9A9.658,9.658,0,0,1,28,112.5V55.451A9.659,9.659,0,0,1,32.9,47.056Z" transform="translate(6917.977 1882.48) rotate(90)" fill="#1d65a6" opacity="0.08"/>
    <path id="Path_1033" data-name="Path 1033" d="M129.823,43.49l-44.577-25.2a8.537,8.537,0,0,0-8.356,0L32.313,43.49A8.5,8.5,0,0,0,28,50.882v50.236a8.505,8.505,0,0,0,4.313,7.392l44.577,25.2a8.537,8.537,0,0,0,8.356,0l44.577-25.2a8.5,8.5,0,0,0,4.313-7.392V50.882A8.505,8.505,0,0,0,129.823,43.49Z" transform="translate(6610 704.949)" fill="#1d65a6" opacity="0.08"/>
    <path id="Path_1034" data-name="Path 1034" d="M106.055,37.354,71.883,18.039a6.544,6.544,0,0,0-6.406,0L31.306,37.354A6.519,6.519,0,0,0,28,43.02V81.53A6.52,6.52,0,0,0,31.306,87.2l34.172,19.314a6.545,6.545,0,0,0,6.406,0L106.055,87.2a6.519,6.519,0,0,0,3.306-5.666V43.02A6.52,6.52,0,0,0,106.055,37.354Z" transform="translate(6459.139 62.798)" fill="#1d65a6" opacity="0.08"/>
    <path id="Path_1035" data-name="Path 1035" d="M129.823,43.49l-44.577-25.2a8.537,8.537,0,0,0-8.356,0L32.313,43.49A8.5,8.5,0,0,0,28,50.882v50.236a8.505,8.505,0,0,0,4.313,7.392l44.577,25.2a8.537,8.537,0,0,0,8.356,0l44.577-25.2a8.5,8.5,0,0,0,4.313-7.392V50.882A8.505,8.505,0,0,0,129.823,43.49Z" transform="translate(5012.865 942.747)" fill="#1d65a6" opacity="0.08"/>
    <path id="Path_1036" data-name="Path 1036" d="M129.823,43.49l-44.577-25.2a8.537,8.537,0,0,0-8.356,0L32.313,43.49A8.5,8.5,0,0,0,28,50.882v50.236a8.505,8.505,0,0,0,4.313,7.392l44.577,25.2a8.537,8.537,0,0,0,8.356,0l44.577-25.2a8.5,8.5,0,0,0,4.313-7.392V50.882A8.505,8.505,0,0,0,129.823,43.49Z" transform="translate(5891.933 153.146)" fill="#1d65a6" opacity="0.08"/>
    <path id="Path_1037" data-name="Path 1037" d="M30.6,33.045,57.464,17.86a5.145,5.145,0,0,1,5.036,0L89.365,33.045a5.125,5.125,0,0,1,2.6,4.455V67.775a5.126,5.126,0,0,1-2.6,4.455L62.5,87.415a5.145,5.145,0,0,1-5.036,0L30.6,72.23A5.125,5.125,0,0,1,28,67.775V37.5A5.126,5.126,0,0,1,30.6,33.045Z" transform="translate(5161.638 1989.003) rotate(90)" fill="#1d65a6" opacity="0.08"/>
    <path id="Path_1038" data-name="Path 1038" d="M29.755,27.9,47.892,17.646a3.473,3.473,0,0,1,3.4,0L69.429,27.9a3.46,3.46,0,0,1,1.755,3.008v20.44a3.461,3.461,0,0,1-1.755,3.008L51.292,64.6a3.474,3.474,0,0,1-3.4,0L29.755,54.353A3.46,3.46,0,0,1,28,51.345V30.906A3.461,3.461,0,0,1,29.755,27.9Z" transform="translate(5006.823 2104.155) rotate(90)" fill="#1d65a6" opacity="0.08"/>
    <path id="Path_1039" data-name="Path 1039" d="M29.755,27.9,47.892,17.646a3.473,3.473,0,0,1,3.4,0L69.429,27.9a3.46,3.46,0,0,1,1.755,3.008v20.44a3.461,3.461,0,0,1-1.755,3.008L51.292,64.6a3.474,3.474,0,0,1-3.4,0L29.755,54.353A3.46,3.46,0,0,1,28,51.345V30.906A3.461,3.461,0,0,1,29.755,27.9Z" transform="translate(6588.408 1972.057)" fill="#1d65a6" opacity="0.08"/>
    <path id="Path_1040" data-name="Path 1040" d="M30.6,33.045,57.464,17.86a5.145,5.145,0,0,1,5.036,0L89.365,33.045a5.125,5.125,0,0,1,2.6,4.455V67.775a5.126,5.126,0,0,1-2.6,4.455L62.5,87.415a5.145,5.145,0,0,1-5.036,0L30.6,72.23A5.125,5.125,0,0,1,28,67.775V37.5A5.126,5.126,0,0,1,30.6,33.045Z" transform="translate(6775.688 2178.765) rotate(90)" fill="#1d65a6" opacity="0.08"/>
  </g>
</svg>
