<svg width="44" height="38" viewBox="0 0 44 38" fill="none" xmlns="http://www.w3.org/2000/svg">
<path d="M37.5832 3.16667H6.4165C5.68716 3.16667 4.98769 3.41689 4.47196 3.86229C3.95624 4.30769 3.6665 4.91178 3.6665 5.54167V32.4583C3.6665 33.0882 3.95624 33.6923 4.47196 34.1377C4.98769 34.5831 5.68716 34.8333 6.4165 34.8333H37.5832C38.3125 34.8333 39.012 34.5831 39.5277 34.1377C40.0434 33.6923 40.3332 33.0882 40.3332 32.4583V5.54167C40.3332 4.91178 40.0434 4.30769 39.5277 3.86229C39.012 3.41689 38.3125 3.16667 37.5832 3.16667Z" stroke="white" stroke-width="2" stroke-linejoin="round"/>
<path d="M30.25 9.5L33.9167 28.5M14.6667 9.5L11 28.5M22 9.5V12.6667M22 17.4167V20.5833M22 25.3333V28.5" stroke="white" stroke-width="2" stroke-linecap="round" stroke-linejoin="round"/>
</svg>
