<svg width="50" height="51" viewBox="0 0 50 51" fill="none" xmlns="http://www.w3.org/2000/svg">
<path d="M16.6665 25.5C18.8766 25.5 20.9963 24.6045 22.5591 23.0104C24.1219 21.4163 24.9998 19.2543 24.9998 17C24.9998 14.7457 24.1219 12.5837 22.5591 10.9896C20.9963 9.39553 18.8766 8.5 16.6665 8.5C14.4564 8.5 12.3368 9.39553 10.7739 10.9896C9.21114 12.5837 8.33317 14.7457 8.33317 17C8.33317 19.2543 9.21114 21.4163 10.7739 23.0104C12.3368 24.6045 14.4564 25.5 16.6665 25.5ZM35.4165 25.5C37.0741 25.5 38.6638 24.8284 39.8359 23.6328C41.008 22.4373 41.6665 20.8158 41.6665 19.125C41.6665 17.4342 41.008 15.8127 39.8359 14.6172C38.6638 13.4216 37.0741 12.75 35.4165 12.75C33.7589 12.75 32.1692 13.4216 30.9971 14.6172C29.825 15.8127 29.1665 17.4342 29.1665 19.125C29.1665 20.8158 29.825 22.4373 30.9971 23.6328C32.1692 24.8284 33.7589 25.5 35.4165 25.5ZM8.854 29.75C7.6108 29.75 6.41852 30.2537 5.53944 31.1504C4.66036 32.0471 4.1665 33.2632 4.1665 34.5312V35.0625C4.1665 35.0625 4.1665 44.625 16.6665 44.625C29.1665 44.625 29.1665 35.0625 29.1665 35.0625V34.5312C29.1665 33.2632 28.6726 32.0471 27.7936 31.1504C26.9145 30.2537 25.7222 29.75 24.479 29.75H8.854ZM35.4165 41.4375C32.9769 41.4375 31.1082 41.0529 29.6769 40.4642C30.51 39.0304 31.0329 37.4313 31.2103 35.7744C31.2305 35.573 31.2437 35.371 31.2498 35.1687V34.5312C31.2525 32.751 30.579 31.0389 29.3707 29.7542L29.5832 29.75H41.2498C42.4654 29.75 43.6312 30.2425 44.4907 31.1193C45.3503 31.996 45.8332 33.1851 45.8332 34.425C45.8332 34.425 45.8332 41.4375 35.4165 41.4375Z" fill="#333333"/>
</svg>
