<svg width="52" height="49" viewBox="0 0 52 49" fill="none" xmlns="http://www.w3.org/2000/svg">
<path d="M36.8333 8.16666C36.2587 8.16666 35.7076 7.95156 35.3013 7.56867C34.8949 7.18578 34.6667 6.66648 34.6667 6.12499C34.6667 5.58351 34.8949 5.06421 35.3013 4.68132C35.7076 4.29843 36.2587 4.08333 36.8333 4.08333H45.5C46.0746 4.08333 46.6257 4.29843 47.0321 4.68132C47.4384 5.06421 47.6667 5.58351 47.6667 6.12499V14.2917C47.6667 14.8331 47.4384 15.3525 47.0321 15.7353C46.6257 16.1182 46.0746 16.3333 45.5 16.3333C44.9254 16.3333 44.3743 16.1182 43.9679 15.7353C43.5616 15.3525 43.3333 14.8331 43.3333 14.2917V11.0536L30.7818 22.881C30.3755 23.2637 29.8245 23.4787 29.25 23.4787C28.6755 23.4787 28.1245 23.2637 27.7182 22.881L21.6667 17.1786L10.1985 27.9851C9.78986 28.357 9.24256 28.5628 8.67446 28.5582C8.10637 28.5535 7.56294 28.3388 7.16123 27.9602C6.75951 27.5817 6.53164 27.0696 6.52671 26.5343C6.52177 25.999 6.74016 25.4833 7.13483 25.0982L20.1348 12.8482C20.5411 12.4654 21.0921 12.2504 21.6667 12.2504C22.2412 12.2504 22.7922 12.4654 23.1985 12.8482L29.25 18.5506L40.2697 8.16666H36.8333ZM10.8333 36.75V42.875C10.8333 43.4165 10.6051 43.9358 10.1987 44.3187C9.7924 44.7016 9.2413 44.9167 8.66667 44.9167C8.09203 44.9167 7.54093 44.7016 7.1346 44.3187C6.72827 43.9358 6.5 43.4165 6.5 42.875V36.75C6.5 36.2085 6.72827 35.6892 7.1346 35.3063C7.54093 34.9234 8.09203 34.7083 8.66667 34.7083C9.2413 34.7083 9.7924 34.9234 10.1987 35.3063C10.6051 35.6892 10.8333 36.2085 10.8333 36.75ZM21.6667 28.5833C21.6667 28.0418 21.4384 27.5225 21.0321 27.1397C20.6257 26.7568 20.0746 26.5417 19.5 26.5417C18.9254 26.5417 18.3743 26.7568 17.9679 27.1397C17.5616 27.5225 17.3333 28.0418 17.3333 28.5833V42.875C17.3333 43.4165 17.5616 43.9358 17.9679 44.3187C18.3743 44.7016 18.9254 44.9167 19.5 44.9167C20.0746 44.9167 20.6257 44.7016 21.0321 44.3187C21.4384 43.9358 21.6667 43.4165 21.6667 42.875V28.5833ZM30.3333 30.625C30.908 30.625 31.4591 30.8401 31.8654 31.223C32.2717 31.6059 32.5 32.1252 32.5 32.6667V42.875C32.5 43.4165 32.2717 43.9358 31.8654 44.3187C31.4591 44.7016 30.908 44.9167 30.3333 44.9167C29.7587 44.9167 29.2076 44.7016 28.8013 44.3187C28.3949 43.9358 28.1667 43.4165 28.1667 42.875V32.6667C28.1667 32.1252 28.3949 31.6059 28.8013 31.223C29.2076 30.8401 29.7587 30.625 30.3333 30.625ZM43.3333 22.4583C43.3333 21.9168 43.1051 21.3975 42.6987 21.0147C42.2924 20.6318 41.7413 20.4167 41.1667 20.4167C40.592 20.4167 40.0409 20.6318 39.6346 21.0147C39.2283 21.3975 39 21.9168 39 22.4583V42.875C39 43.4165 39.2283 43.9358 39.6346 44.3187C40.0409 44.7016 40.592 44.9167 41.1667 44.9167C41.7413 44.9167 42.2924 44.7016 42.6987 44.3187C43.1051 43.9358 43.3333 43.4165 43.3333 42.875V22.4583Z" fill="#333333"/>
</svg>
