<svg width="40" height="33" viewBox="0 0 40 33" fill="none" xmlns="http://www.w3.org/2000/svg">
<path d="M18.083 11.625H21.9163V8.375H18.083M19.9997 29.5C11.5472 29.5 4.66634 23.6663 4.66634 16.5C4.66634 9.33375 11.5472 3.5 19.9997 3.5C28.4522 3.5 35.333 9.33375 35.333 16.5C35.333 23.6663 28.4522 29.5 19.9997 29.5ZM19.9997 0.25C17.4827 0.25 14.9903 0.670319 12.6649 1.48696C10.3395 2.3036 8.22658 3.50056 6.44679 5.00951C2.85235 8.05698 0.833008 12.1902 0.833008 16.5C0.833008 20.8098 2.85235 24.943 6.44679 27.9905C8.22658 29.4994 10.3395 30.6964 12.6649 31.513C14.9903 32.3297 17.4827 32.75 19.9997 32.75C25.083 32.75 29.9581 31.038 33.5526 27.9905C37.147 24.943 39.1663 20.8098 39.1663 16.5C39.1663 14.366 38.6706 12.2529 37.7074 10.2814C36.7442 8.30985 35.3323 6.51847 33.5526 5.00951C31.7728 3.50056 29.6598 2.3036 27.3344 1.48696C25.009 0.670319 22.5167 0.25 19.9997 0.25ZM18.083 24.625H21.9163V14.875H18.083V24.625Z" fill="black"/>
</svg>
